<?xml version="1.0" standalone="no"?>
<!DOCTYPE svg PUBLIC "-//W3C//DTD SVG 1.1//EN" "http://www.w3.org/Graphics/SVG/1.1/DTD/svg11.dtd" >
<svg xmlns="http://www.w3.org/2000/svg" xmlns:xlink="http://www.w3.org/1999/xlink" version="1.1">
<metadata>
Created by FontForge 20201107 at Mon Mar 25 12:41:31 2024
 By 
IgorOvsyannykov
</metadata>
<defs>
<font id="PixelImpact" horiz-adv-x="512" >
  <font-face 
    font-family="PixelImpact"
    font-weight="500"
    font-stretch="normal"
    units-per-em="1024"
    panose-1="2 0 6 3 0 0 0 0 0 0"
    ascent="768"
    descent="-256"
    x-height="576"
    cap-height="704"
    bbox="-64 -128 704 768"
    underline-thickness="51"
    underline-position="-152"
    unicode-range="U+0020-3000"
  />
<missing-glyph horiz-adv-x="374" 
d="M34 0v682h272v-682h-272zM68 34h204v614h-204v-614z" />
    <glyph glyph-name=".notdef" horiz-adv-x="374" 
d="M34 0v682h272v-682h-272zM68 34h204v614h-204v-614z" />
    <glyph glyph-name=".null" horiz-adv-x="0" 
 />
    <glyph glyph-name="nonmarkingreturn" horiz-adv-x="341" 
 />
    <glyph glyph-name="space" unicode=" " horiz-adv-x="320" 
 />
    <glyph glyph-name="exclam" unicode="!" horiz-adv-x="256" 
d="M128 0h-64h-64v64v64h64h64h64v-64v-64h-64zM128 192h-64h-64v64v64v64v64v64v64v64v64h64h64h64v-64v-64v-64v-64v-64v-64v-64v-64h-64z" />
    <glyph glyph-name="quotedbl" unicode="&#x22;" horiz-adv-x="384" 
d="M256 448h-64v64v64v64v64h64h64v-64v-64v-64v-64h-64zM64 448h-64v64v64v64v64h64h64v-64v-64v-64v-64h-64z" />
    <glyph glyph-name="numbersign" unicode="#" horiz-adv-x="640" 
d="M320 0h-64v64v64v64h-64v-64v-64v-64h-64h-64v64v64v64h-64v64h64h64v64v64v64h-64v64h64h64v64v64v64h64h64v-64v-64v-64h64v64v64v64h64h64v-64v-64v-64h64v-64h-64h-64v-64v-64v-64h64v-64h-64h-64v-64v-64v-64h-64zM320 256v64v64v64h-64v-64v-64v-64h64z" />
    <glyph glyph-name="dollar" unicode="$" 
d="M192 -64v64h-64h-64v64h-64v64v64v64h64h64h64v-64v-64h64v64v64v64h-64h-64v64h-64v64h-64v64v64v64h64v64h64h64v64h64v-64h64h64v-64h64v-64v-64h-64h-64h-64v64h-64v-64v-64h64h64v-64h64v-64h64v-64v-64v-64v-64h-64v-64h-64h-64v-64h-64z" />
    <glyph glyph-name="percent" unicode="%" horiz-adv-x="640" 
d="M128 0v64v64h64v-64v-64h-64zM448 64h64v-64h-64h-64v64h64zM512 64v64v64v64h64v-64v-64v-64h-64zM384 64h-64v64v64v64h64v-64v-64v-64zM192 128v64v64h64v-64v-64h-64zM512 256h-64h-64v64h64h64v-64zM256 256v64v64v64h64v-64v-64v-64h-64zM128 448h64v-64h-64h-64
v64h64zM320 448v64v64h64v-64v-64h-64zM192 448v64v64v64h64v-64v-64v-64h-64zM64 448h-64v64v64v64h64v-64v-64v-64zM384 576v64v64h64v-64v-64h-64zM192 640h-64h-64v64h64h64v-64z" />
    <glyph glyph-name="ampersand" unicode="&#x26;" horiz-adv-x="640" 
d="M512 0h-64h-64v64h-64v-64h-64h-64h-64v64h-64v64h-64v64v64h64v64h64v64h-64v64v64v64v64h64v64h64h64h64v-64h64v-64v-64v-64h-64v-64v-64h64v-64h64h64v64h64v-64v-64h-64v-64v-64h64v-64h-64zM256 128h64v64h-64v64h-64v-64v-64h64zM256 448v64v64h-64v-64v-64h64z
" />
    <glyph glyph-name="quotesingle" unicode="'" horiz-adv-x="192" 
d="M64 448h-64v64v64v64v64h64h64v-64v-64v-64v-64h-64z" />
    <glyph glyph-name="parenleft" unicode="(" horiz-adv-x="320" 
d="M192 0h-64h-64v64h-64v64v64v64v64v64v64v64v64v64h64v64h64h64h64v-64v-64h-64v-64v-64v-64v-64v-64v-64v-64h64v-64v-64h-64z" />
    <glyph glyph-name="parenright" unicode=")" horiz-adv-x="320" 
d="M128 0h-64h-64v64v64h64v64v64v64v64v64v64v64h-64v64v64h64h64h64v-64h64v-64v-64v-64v-64v-64v-64v-64v-64v-64h-64v-64h-64z" />
    <glyph glyph-name="asterisk" unicode="*" horiz-adv-x="256" 
d="M128 448v64h64v-64h-64zM0 448v64h64v-64h-64zM64 512v64h-64v64h64v64h64v-64h64v-64h-64v-64h-64z" />
    <glyph glyph-name="plus" unicode="+" horiz-adv-x="448" 
d="M192 192h-64v64v64h-64h-64v64v64h64h64v64v64h64h64v-64v-64h64h64v-64v-64h-64h-64v-64v-64h-64z" />
    <glyph glyph-name="comma" unicode="," horiz-adv-x="192" 
d="M0 -128v64h64v-64h-64zM64 -64v64h-64v64v64h64h64v-64v-64v-64h-64z" />
    <glyph glyph-name="hyphen" unicode="-" horiz-adv-x="320" 
d="M192 256h-64h-64h-64v64v64h64h64h64h64v-64v-64h-64z" />
    <glyph glyph-name="period" unicode="." horiz-adv-x="192" 
d="M64 0h-64v64v64h64h64v-64v-64h-64z" />
    <glyph glyph-name="slash" unicode="/" horiz-adv-x="384" 
d="M64 -64h-64v64v64v64h64v64v64v64h64v64v64v64h64v64v64v64h64h64v-64v-64v-64h-64v-64v-64v-64h-64v-64v-64v-64h-64v-64v-64v-64h-64z" />
    <glyph glyph-name="zero" unicode="0" 
d="M320 0h-64h-64h-64h-64v64h-64v64v64v64v64v64v64v64v64v64h64v64h64h64h64h64h64v-64h64v-64v-64v-64v-64v-64v-64v-64v-64v-64h-64v-64h-64zM256 64v64v64v64v64v64v64v64v64v64h-64v-64v-64v-64v-64v-64v-64v-64v-64v-64h64z" />
    <glyph glyph-name="one" unicode="1" horiz-adv-x="384" 
d="M256 0h-64h-64v64v64v64v64v64v64v64v64h-64h-64v64v64h64h64v64h64h64h64v-64v-64v-64v-64v-64v-64v-64v-64v-64v-64v-64h-64z" />
    <glyph glyph-name="two" unicode="2" 
d="M384 0h-64h-64h-64h-64h-64h-64v64v64h64v64h64v64h64v64v64h64v64v64v64v64h-64v-64v-64v-64h-64h-64h-64v64v64v64h64v64h64h64h64h64h64v-64h64v-64v-64v-64v-64h-64v-64v-64h-64v-64h-64v-64h64h64h64v-64v-64h-64z" />
    <glyph glyph-name="three" unicode="3" 
d="M320 0h-64h-64h-64h-64v64h-64v64v64v64h64h64h64v-64v-64v-64h64v64v64v64v64h-64h-64v64v64h64h64v64v64v64h-64v-64v-64h-64h-64h-64v64v64h64v64h64h64h64h64h64v-64h64v-64v-64v-64h-64v-64v-64h64v-64v-64v-64v-64h-64v-64h-64z" />
    <glyph glyph-name="four" unicode="4" 
d="M320 0h-64h-64v64v64h-64h-64h-64v64v64v64v64h64v64v64v64h64v64v64h64h64h64h64v-64v-64v-64v-64v-64v-64v-64h64v-64v-64h-64v-64v-64h-64zM192 256v64v64v64h-64v-64v-64v-64h64z" />
    <glyph glyph-name="five" unicode="5" 
d="M320 0h-64h-64h-64h-64v64h-64v64v64v64h64h64h64v-64v-64v-64h64v64v64v64v64v64v64h-64v-64h-64h-64h-64v64v64v64v64v64h64h64h64h64h64h64h64v-64v-64h-64h-64h-64h-64v-64h64h64h64v-64h64v-64v-64v-64v-64v-64v-64h-64v-64h-64z" />
    <glyph glyph-name="six" unicode="6" 
d="M320 0h-64h-64h-64h-64v64h-64v64v64v64v64v64v64v64v64v64h64v64h64h64h64h64h64v-64h64v-64v-64h-64h-64h-64v64v64h-64v-64v-64v-64h64h64h64v-64h64v-64v-64v-64v-64v-64h-64v-64h-64zM256 64v64v64v64v64v64h-64v-64v-64v-64v-64v-64h64z" />
    <glyph glyph-name="seven" unicode="7" horiz-adv-x="448" 
d="M192 0h-64h-64v64v64v64h64v64v64v64h64v64v64v64h-64h-64h-64v64v64h64h64h64h64h64h64v-64v-64v-64v-64v-64h-64v-64v-64v-64h-64v-64v-64v-64h-64z" />
    <glyph glyph-name="eight" unicode="8" 
d="M320 0h-64h-64h-64h-64v64h-64v64v64v64v64h64v64v64h-64v64v64v64h64v64h64h64h64h64h64v-64h64v-64v-64v-64h-64v-64v-64h64v-64v-64v-64v-64h-64v-64h-64zM256 64v64v64v64v64h-64v-64v-64v-64v-64h64zM256 448v64v64v64h-64v-64v-64v-64h64z" />
    <glyph glyph-name="nine" unicode="9" 
d="M320 0h-64h-64h-64h-64v64h-64v64v64h64h64h64v-64v-64h64v64v64v64h-64h-64h-64v64h-64v64v64v64v64v64h64v64h64h64h64h64h64v-64h64v-64v-64v-64v-64v-64v-64v-64v-64v-64h-64v-64h-64zM256 320v64v64v64v64v64h-64v-64v-64v-64v-64v-64h64z" />
    <glyph glyph-name="colon" unicode=":" horiz-adv-x="192" 
d="M64 0h-64v64v64h64h64v-64v-64h-64zM64 320h-64v64v64h64h64v-64v-64h-64z" />
    <glyph glyph-name="semicolon" unicode=";" horiz-adv-x="192" 
d="M0 -128v64h64v-64h-64zM64 -64v64h-64v64v64h64h64v-64v-64v-64h-64zM64 320h-64v64v64h64h64v-64v-64h-64z" />
    <glyph glyph-name="less" unicode="&#x3c;" 
d="M384 128h-64v64h-64h-64v64h-64h-64v64h-64v64h64v64h64h64v64h64h64v64h64h64v-64v-64h-64h-64v-64h-64h-64v-64h64h64v-64h64h64v-64v-64h-64z" />
    <glyph glyph-name="equal" unicode="=" 
d="M384 192h-64h-64h-64h-64h-64h-64v64v64h64h64h64h64h64h64h64v-64v-64h-64zM384 384h-64h-64h-64h-64h-64h-64v64v64h64h64h64h64h64h64h64v-64v-64h-64z" />
    <glyph glyph-name="greater" unicode="&#x3e;" 
d="M64 128h-64v64v64h64h64v64h64h64v64h-64h-64v64h-64h-64v64v64h64h64v-64h64h64v-64h64h64v-64h64v-64h-64v-64h-64h-64v-64h-64h-64v-64h-64z" />
    <glyph glyph-name="question" unicode="?" 
d="M128 0h-64h-64v64v64h64h64h64v-64v-64h-64zM128 192h-64h-64v64v64v64h64h64h64v-64h64v64v64v64v64v64h-64v-64v-64h-64h-64h-64v64v64h64v64h64h64h64h64h64v-64h64v-64v-64v-64v-64v-64h-64v-64h-64h-64h-64v-64h-64z" />
    <glyph glyph-name="at" unicode="@" horiz-adv-x="768" 
d="M448 64h64v-64h-64h-64h-64h-64h-64v64h64h64h64h64zM576 128h64v-64h-64h-64v64h64zM192 64h-64h-64v64v64h64v-64h64v-64zM576 256h64v-64h-64h-64h-64v64h-64v-64h-64h-64v64h64h64v64h64v64h-64v64h64v64h64v-64v-64v-64v-64h64zM64 192h-64v64v64v64v64v64h64v-64
v-64v-64v-64v-64zM640 256v64v64v64v64h64v-64v-64v-64v-64h-64zM256 256h-64v64v64v64h64v-64v-64v-64zM384 448h-64h-64v64h64h64v-64zM640 512h-64v64h-64v64h64h64v-64v-64zM64 512v64v64h64h64v-64h-64v-64h-64zM512 640h-64h-64h-64h-64h-64v64h64h64h64h64h64v-64z
" />
    <glyph glyph-name="A" unicode="A" 
d="M384 0h-64h-64v64v64h-64v-64v-64h-64h-64h-64v64v64v64v64h64v64v64v64v64h64v64v64v64h64h64h64v-64v-64v-64h64v-64v-64v-64v-64h64v-64v-64v-64v-64h-64zM256 256v64v64v64h-64v-64v-64v-64h64z" />
    <glyph glyph-name="B" unicode="B" 
d="M320 0h-64h-64h-64h-64h-64v64v64v64v64v64v64v64v64v64v64v64h64h64h64h64h64h64v-64h64v-64v-64v-64h-64v-64h64v-64v-64v-64v-64v-64h-64v-64h-64zM256 128v64v64v64h-64v-64v-64v-64h64zM256 448v64v64h-64v-64v-64h64z" />
    <glyph glyph-name="C" unicode="C" 
d="M320 0h-64h-64h-64h-64v64h-64v64v64v64v64v64v64v64v64v64h64v64h64h64h64h64h64v-64h64v-64v-64v-64h-64h-64h-64v64v64h-64v-64v-64v-64v-64v-64v-64v-64h64v64v64h64h64h64v-64v-64v-64h-64v-64h-64z" />
    <glyph glyph-name="D" unicode="D" 
d="M320 0h-64h-64h-64h-64h-64v64v64v64v64v64v64v64v64v64v64v64h64h64h64h64h64h64v-64h64v-64v-64v-64v-64v-64v-64v-64v-64v-64h-64v-64h-64zM256 128v64v64v64v64v64v64v64h-64v-64v-64v-64v-64v-64v-64v-64h64z" />
    <glyph glyph-name="E" unicode="E" horiz-adv-x="384" 
d="M256 0h-64h-64h-64h-64v64v64v64v64v64v64v64v64v64v64v64h64h64h64h64h64v-64v-64h-64h-64v-64v-64h64h64v-64v-64h-64h-64v-64v-64v-64h64h64v-64v-64h-64z" />
    <glyph glyph-name="F" unicode="F" horiz-adv-x="384" 
d="M128 0h-64h-64v64v64v64v64v64v64v64v64v64v64v64h64h64h64h64h64v-64v-64h-64h-64v-64v-64h64h64v-64v-64h-64h-64v-64v-64v-64v-64v-64h-64z" />
    <glyph glyph-name="G" unicode="G" horiz-adv-x="576" 
d="M448 0v64h-64v-64h-64h-64h-64h-64h-64v64h-64v64v64v64v64v64v64v64v64v64h64v64h64h64h64h64h64h64v-64h64v-64v-64v-64h-64h-64h-64v64v64h-64h-64v-64v-64v-64v-64v-64v-64v-64h64h64v64v64v64h-64v64h64h64h64h64v-64v-64v-64v-64v-64v-64h-64z" />
    <glyph glyph-name="H" unicode="H" 
d="M384 0h-64h-64v64v64v64v64v64h-64v-64v-64v-64v-64v-64h-64h-64h-64v64v64v64v64v64v64v64v64v64v64v64h64h64h64v-64v-64v-64v-64h64v64v64v64v64h64h64h64v-64v-64v-64v-64v-64v-64v-64v-64v-64v-64v-64h-64z" />
    <glyph glyph-name="I" unicode="I" horiz-adv-x="256" 
d="M128 0h-64h-64v64v64v64v64v64v64v64v64v64v64v64h64h64h64v-64v-64v-64v-64v-64v-64v-64v-64v-64v-64v-64h-64z" />
    <glyph glyph-name="J" unicode="J" horiz-adv-x="320" 
d="M128 0h-64h-64v64v64h64v64v64v64v64v64v64v64v64v64h64h64h64v-64v-64v-64v-64v-64v-64v-64v-64v-64v-64h-64v-64h-64z" />
    <glyph glyph-name="K" unicode="K" 
d="M384 0h-64h-64v64v64v64h-64v-64v-64v-64h-64h-64h-64v64v64v64v64v64v64v64v64v64v64v64h64h64h64v-64v-64v-64h64v64v64v64h64h64h64v-64v-64h-64v-64v-64h-64v-64v-64h64v-64v-64h64v-64v-64v-64h-64z" />
    <glyph glyph-name="L" unicode="L" horiz-adv-x="384" 
d="M256 0h-64h-64h-64h-64v64v64v64v64v64v64v64v64v64v64v64h64h64h64v-64v-64v-64v-64v-64v-64v-64v-64v-64h64h64v-64v-64h-64z" />
    <glyph glyph-name="M" unicode="M" horiz-adv-x="704" 
d="M576 0h-64h-64v64v64v64v64h-64v-64v-64v-64v-64h-64h-64v64v64v64v64h-64v-64v-64v-64v-64h-64h-64h-64v64v64v64v64v64v64v64v64v64v64v64h64h64h64v-64v-64h64v-64v-64h64h64v64v64h64v64v64h64h64h64v-64v-64v-64v-64v-64v-64v-64v-64v-64v-64v-64h-64z" />
    <glyph glyph-name="N" unicode="N" 
d="M384 0h-64v64h-64v64v64h-64v64v64h-64v-64v-64v-64v-64v-64h-64h-64v64v64v64v64v64v64v64v64v64v64v64h64h64v-64h64v-64v-64h64v-64v-64h64v64v64v64v64v64h64h64v-64v-64v-64v-64v-64v-64v-64v-64v-64v-64v-64h-64z" />
    <glyph glyph-name="O" unicode="O" 
d="M320 0h-64h-64h-64h-64v64h-64v64v64v64v64v64v64v64v64v64h64v64h64h64h64h64h64v-64h64v-64v-64v-64v-64v-64v-64v-64v-64v-64h-64v-64h-64zM256 128v64v64v64v64v64v64v64h-64v-64v-64v-64v-64v-64v-64v-64h64z" />
    <glyph glyph-name="P" unicode="P" 
d="M128 0h-64h-64v64v64v64v64v64v64v64v64v64v64v64h64h64h64h64h64h64v-64h64v-64v-64v-64v-64h-64v-64h-64h-64h-64v-64v-64v-64v-64v-64h-64zM256 448v64v64h-64v-64v-64h64z" />
    <glyph glyph-name="Q" unicode="Q" 
d="M384 0h64v-64h-64h-64h-64h-64v64h-64h-64v64h-64v64v64v64v64v64v64v64v64v64h64v64h64h64h64h64h64v-64h64v-64v-64v-64v-64v-64v-64v-64v-64v-64h-64h-64v-64h64zM256 128v64v64v64v64v64v64v64h-64v-64v-64v-64v-64v-64v-64v-64h64z" />
    <glyph glyph-name="R" unicode="R" 
d="M384 0h-64h-64v64v64v64v64v64h-64v-64v-64v-64v-64v-64h-64h-64h-64v64v64v64v64v64v64v64v64v64v64v64h64h64h64h64h64h64v-64h64v-64v-64v-64v-64h-64v-64h64v-64v-64v-64v-64v-64h-64zM256 448v64v64h-64v-64v-64h64z" />
    <glyph glyph-name="S" unicode="S" 
d="M320 0h-64h-64h-64h-64v64h-64v64v64v64h64h64h64v-64v-64h64v64v64v64h-64h-64v64h-64v64h-64v64v64v64h64v64h64h64h64h64h64v-64h64v-64v-64h-64h-64h-64v64h-64v-64v-64h64h64v-64h64v-64h64v-64v-64v-64v-64h-64v-64h-64z" />
    <glyph glyph-name="T" unicode="T" 
d="M256 0h-64h-64v64v64v64v64v64v64v64v64v64h-64h-64v64v64h64h64h64h64h64h64h64v-64v-64h-64h-64v-64v-64v-64v-64v-64v-64v-64v-64v-64h-64z" />
    <glyph glyph-name="U" unicode="U" 
d="M320 0h-64h-64h-64h-64v64h-64v64v64v64v64v64v64v64v64v64v64h64h64h64v-64v-64v-64v-64v-64v-64v-64v-64v-64h64v64v64v64v64v64v64v64v64v64h64h64h64v-64v-64v-64v-64v-64v-64v-64v-64v-64v-64h-64v-64h-64z" />
    <glyph glyph-name="V" unicode="V" 
d="M256 0h-64h-64v64v64v64h-64v64v64v64v64h-64v64v64v64v64h64h64h64v-64v-64v-64v-64v-64h64v64v64v64v64v64h64h64h64v-64v-64v-64v-64h-64v-64v-64v-64v-64h-64v-64v-64v-64h-64z" />
    <glyph glyph-name="W" unicode="W" horiz-adv-x="768" 
d="M512 0h-64v64v64v64h-64v64v64h-64v-64v-64h-64v-64v-64v-64h-64h-64v64v64v64h-64v64v64v64h-64v64v64v64v64v64h64h64h64v-64v-64v-64v-64h64v64v64v64v64h64h64h64v-64v-64v-64v-64h64v64v64v64v64h64h64h64v-64v-64v-64v-64v-64h-64v-64v-64v-64h-64v-64v-64v-64h-64
z" />
    <glyph glyph-name="X" unicode="X" 
d="M384 0h-64h-64v64v64v64h-64v-64v-64v-64h-64h-64h-64v64v64h64v64v64v64h64v64v64h-64v64v64h-64v64v64h64h64h64v-64v-64h64v64v64h64h64h64v-64v-64h-64v-64v-64h-64v-64v-64h64v-64v-64v-64h64v-64v-64h-64z" />
    <glyph glyph-name="Y" unicode="Y" 
d="M256 0h-64h-64v64v64v64v64v64v64h-64v64v64v64h-64v64v64h64h64h64v-64v-64v-64h64v64v64v64h64h64h64v-64v-64h-64v-64v-64v-64h-64v-64v-64v-64v-64v-64v-64h-64z" />
    <glyph glyph-name="Z" unicode="Z" 
d="M384 0h-64h-64h-64h-64h-64h-64v64v64v64h64v64v64h64v64h64v64v64h64v64h-64h-64h-64h-64v64v64h64h64h64h64h64h64h64v-64v-64v-64h-64v-64v-64h-64v-64h-64v-64v-64h-64v-64h64h64h64h64v-64v-64h-64z" />
    <glyph glyph-name="bracketleft" unicode="[" horiz-adv-x="256" 
d="M128 0h-64h-64v64v64v64v64v64v64v64v64v64v64v64h64h64h64v-64h-64v-64v-64v-64v-64v-64v-64v-64v-64v-64h64v-64h-64z" />
    <glyph glyph-name="backslash" unicode="\" horiz-adv-x="384" 
d="M256 -64h-64v64v64v64h-64v64v64v64h-64v64v64v64h-64v64v64v64h64h64v-64v-64v-64h64v-64v-64v-64h64v-64v-64v-64h64v-64v-64v-64h-64z" />
    <glyph glyph-name="bracketright" unicode="]" horiz-adv-x="256" 
d="M128 0h-64h-64v64h64v64v64v64v64v64v64v64v64v64h-64v64h64h64h64v-64v-64v-64v-64v-64v-64v-64v-64v-64v-64v-64h-64z" />
    <glyph glyph-name="asciicircum" unicode="^" horiz-adv-x="448" 
d="M320 320h-64v64v64v64h-64h-64v-64v-64v-64h-64h-64v64v64h64v64v64h64v64v64h64h64v-64v-64h64v-64v-64h64v-64v-64h-64z" />
    <glyph glyph-name="underscore" unicode="_" horiz-adv-x="576" 
d="M448 0h64v-64h-64h-64h-64h-64h-64h-64h-64h-64v64h64h64h64h64h64h64h64z" />
    <glyph glyph-name="grave" unicode="`" horiz-adv-x="256" 
d="M128 640h-64v64h-64v64h64h64v-64h64v-64h-64z" />
    <glyph glyph-name="a" unicode="a" 
d="M384 0h-64h-64h-64h-64h-64v64h-64v64v64v64h64v64h64h64h64v64v64v64h-64v-64v-64h-64h-64h-64v64v64h64v64h64h64h64h64h64v-64h64v-64v-64v-64v-64v-64v-64v-64v-64h-64zM256 64v64v64v64h-64v-64v-64v-64h64z" />
    <glyph glyph-name="b" unicode="b" 
d="M320 0h-64h-64h-64h-64h-64v64v64v64v64v64v64v64v64v64v64v64h64h64h64v-64v-64h64h64h64v-64h64v-64v-64v-64v-64v-64v-64v-64h-64v-64h-64zM256 64v64v64v64v64v64v64v64h-64v-64v-64v-64v-64v-64v-64v-64h64z" />
    <glyph glyph-name="c" unicode="c" 
d="M320 0h-64h-64h-64h-64v64h-64v64v64v64v64v64v64v64h64v64h64h64h64h64h64v-64h64v-64v-64h-64h-64h-64v64v64h-64v-64v-64v-64v-64v-64v-64v-64h64v64v64h64h64h64v-64v-64h-64v-64h-64z" />
    <glyph glyph-name="d" unicode="d" 
d="M384 0h-64h-64h-64h-64h-64v64h-64v64v64v64v64v64v64v64h64v64h64h64h64v64v64h64h64h64v-64v-64v-64v-64v-64v-64v-64v-64v-64v-64v-64h-64zM256 64v64v64v64v64v64v64v64h-64v-64v-64v-64v-64v-64v-64v-64h64z" />
    <glyph glyph-name="e" unicode="e" 
d="M320 0h-64h-64h-64h-64v64h-64v64v64v64v64v64v64v64h64v64h64h64h64h64h64v-64h64v-64v-64v-64v-64h-64h-64h-64h-64v-64v-64v-64h64v64v64h64h64h64v-64v-64h-64v-64h-64zM256 320v64v64v64h-64v-64v-64v-64h64z" />
    <glyph glyph-name="f" unicode="f" horiz-adv-x="384" 
d="M192 0h-64h-64v64v64v64v64v64v64v64v64h-64v64h64v64h64v64h64h64h64v-64h-64h-64v-64h64h64v-64h-64v-64v-64v-64v-64v-64v-64v-64v-64h-64z" />
    <glyph glyph-name="g" unicode="g" 
d="M320 -64h-64h-64h-64h-64v64h-64v64h64h64h64v-64h64v64v64h-64h-64h-64v64h-64v64v64v64v64v64h64v64h64h64h64h64h64h64v-64v-64v-64v-64v-64v-64v-64v-64v-64h-64v-64h-64zM256 192v64v64v64v64v64h-64v-64v-64v-64v-64v-64h64z" />
    <glyph glyph-name="h" unicode="h" 
d="M384 0h-64h-64v64v64v64v64v64v64v64v64h-64v-64v-64v-64v-64v-64v-64v-64v-64h-64h-64h-64v64v64v64v64v64v64v64v64v64v64v64h64h64h64v-64v-64h64h64h64v-64h64v-64v-64v-64v-64v-64v-64v-64v-64h-64z" />
    <glyph glyph-name="i" unicode="i" horiz-adv-x="256" 
d="M128 0h-64h-64v64v64v64v64v64v64v64v64v64h64h64h64v-64v-64v-64v-64v-64v-64v-64v-64v-64h-64zM128 704h64v-64h-64h-64h-64v64h64h64z" />
    <glyph glyph-name="j" unicode="j" horiz-adv-x="256" 
d="M64 -64h-64h-64v64h64v64v64v64v64v64v64v64v64v64h64h64h64v-64v-64v-64v-64v-64v-64v-64v-64v-64h-64v-64h-64zM128 704h64v-64h-64h-64h-64v64h64h64z" />
    <glyph glyph-name="k" unicode="k" 
d="M384 0h-64h-64v64v64v64h-64v-64v-64v-64h-64h-64h-64v64v64v64v64v64v64v64v64v64v64v64h64h64h64v-64v-64v-64v-64h64v64v64h64h64h64v-64h-64v-64v-64h-64v-64v-64h64v-64v-64h64v-64v-64h-64z" />
    <glyph glyph-name="l" unicode="l" horiz-adv-x="256" 
d="M128 0h-64h-64v64v64v64v64v64v64v64v64v64v64v64h64h64h64v-64v-64v-64v-64v-64v-64v-64v-64v-64v-64v-64h-64z" />
    <glyph glyph-name="m" unicode="m" horiz-adv-x="768" 
d="M640 0h-64h-64v64v64v64v64v64v64v64v64h-64v-64v-64v-64v-64v-64v-64v-64v-64h-64h-64h-64v64v64v64v64v64v64v64v64h-64v-64v-64v-64v-64v-64v-64v-64v-64h-64h-64h-64v64v64v64v64v64v64v64v64v64h64h64h64h64h64h64h64h64h64h64v-64h64v-64v-64v-64v-64v-64v-64v-64
v-64h-64z" />
    <glyph glyph-name="n" unicode="n" 
d="M384 0h-64h-64v64v64v64v64v64v64v64v64h-64v-64v-64v-64v-64v-64v-64v-64v-64h-64h-64h-64v64v64v64v64v64v64v64v64v64h64h64h64h64h64h64v-64h64v-64v-64v-64v-64v-64v-64v-64v-64h-64z" />
    <glyph glyph-name="o" unicode="o" 
d="M320 0h-64h-64h-64h-64v64h-64v64v64v64v64v64v64v64h64v64h64h64h64h64h64v-64h64v-64v-64v-64v-64v-64v-64v-64h-64v-64h-64zM256 64v64v64v64v64v64v64v64h-64v-64v-64v-64v-64v-64v-64v-64h64z" />
    <glyph glyph-name="p" unicode="p" 
d="M128 -64h-64h-64v64v64v64v64v64v64v64v64v64v64h64h64h64h64h64h64v-64h64v-64v-64v-64v-64v-64v-64v-64h-64v-64h-64h-64h-64v-64h-64zM256 64v64v64v64v64v64v64v64h-64v-64v-64v-64v-64v-64v-64v-64h64z" />
    <glyph glyph-name="q" unicode="q" 
d="M384 -64h-64h-64v64h-64h-64h-64v64h-64v64v64v64v64v64v64v64h64v64h64h64h64h64h64h64v-64v-64v-64v-64v-64v-64v-64v-64v-64v-64h-64zM256 64v64v64v64v64v64v64v64h-64v-64v-64v-64v-64v-64v-64v-64h64z" />
    <glyph glyph-name="r" unicode="r" horiz-adv-x="384" 
d="M128 0h-64h-64v64v64v64v64v64v64v64v64v64h64h64h64v-64h64v64h64v-64v-64v-64h-64v-64h-64v-64v-64v-64v-64v-64h-64z" />
    <glyph glyph-name="s" unicode="s" 
d="M320 0h-64h-64h-64h-64v64h-64v64v64h64h64h64v64h-64h-64v64h-64v64v64v64h64v64h64h64h64h64h64v-64h64v-64v-64h-64h-64h-64v64v64h-64v-64v-64h64v-64h64h64v-64h64v-64v-64v-64h-64v-64h-64zM256 64v64v64h-64v-64v-64h64z" />
    <glyph glyph-name="t" unicode="t" horiz-adv-x="384" 
d="M256 0h-64h-64v64h-64v64v64v64v64v64v64v64h-64v64h64v64v64h64h64h64v-64v-64h64v-64h-64v-64v-64v-64v-64v-64v-64v-64h64v-64h-64z" />
    <glyph glyph-name="u" unicode="u" 
d="M384 0h-64h-64h-64h-64h-64v64h-64v64v64v64v64v64v64v64v64h64h64h64v-64v-64v-64v-64v-64v-64v-64v-64h64v64v64v64v64v64v64v64v64h64h64h64v-64v-64v-64v-64v-64v-64v-64v-64v-64h-64z" />
    <glyph glyph-name="v" unicode="v" 
d="M256 0h-64h-64v64v64v64h-64v64v64v64h-64v64v64v64h64h64h64v-64v-64v-64v-64h64v64v64v64v64h64h64h64v-64v-64v-64h-64v-64v-64v-64h-64v-64v-64v-64h-64z" />
    <glyph glyph-name="w" unicode="w" horiz-adv-x="640" 
d="M448 0h-64h-64v64v64v64h-64v-64v-64v-64h-64h-64h-64v64v64v64v64h-64v64v64v64v64v64h64h64v-64v-64v-64v-64h64v64v64v64v64h64h64h64v-64v-64v-64v-64h64v64v64v64v64h64h64v-64v-64v-64v-64v-64h-64v-64v-64v-64v-64h-64z" />
    <glyph glyph-name="x" unicode="x" 
d="M384 0h-64h-64v64v64h-64v-64v-64h-64h-64h-64v64v64h64v64v64h64v64h-64v64v64h-64v64v64h64h64h64v-64v-64h64v64v64h64h64h64v-64v-64h-64v-64v-64h-64v-64h64v-64v-64h64v-64v-64h-64z" />
    <glyph glyph-name="y" unicode="y" 
d="M192 -64h-64h-64h-64v64h64h64v64v64v64h-64v64v64v64h-64v64v64v64h64h64h64v-64v-64v-64v-64v-64h64v64v64v64v64v64h64h64h64v-64v-64v-64h-64v-64v-64v-64h-64v-64v-64v-64h-64v-64h-64z" />
    <glyph glyph-name="z" unicode="z" horiz-adv-x="384" 
d="M256 0h-64h-64h-64h-64v64v64v64h64v64v64h64v64v64h-64h-64v64v64h64h64h64h64h64v-64v-64v-64h-64v-64v-64h-64v-64v-64h64h64v-64v-64h-64z" />
    <glyph glyph-name="braceleft" unicode="{" horiz-adv-x="320" 
d="M192 -64h-64v64h-64v64v64v64v64h-64v64v64h64v64v64v64v64h64v64h64h64v-64v-64h-64v-64v-64v-64h-64v-64v-64h64v-64v-64v-64h64v-64v-64h-64z" />
    <glyph glyph-name="bar" unicode="|" horiz-adv-x="192" 
d="M64 -64h-64v64v64v64v64v64v64v64v64v64v64v64v64h64h64v-64v-64v-64v-64v-64v-64v-64v-64v-64v-64v-64v-64h-64z" />
    <glyph glyph-name="braceright" unicode="}" horiz-adv-x="320" 
d="M64 -64h-64v64v64h64v64v64v64h64v64v64h-64v64v64v64h-64v64v64h64h64v-64h64v-64v-64v-64v-64h64v-64v-64h-64v-64v-64v-64v-64h-64v-64h-64z" />
    <glyph glyph-name="asciitilde" unicode="~" horiz-adv-x="448" 
d="M0 256v64v64h64v64h64h64v-64h64h64v64h64v-64v-64h-64v-64h-64h-64v64h-64h-64v-64h-64z" />
    <glyph glyph-name="uni00A0" unicode="&#xa0;" horiz-adv-x="320" 
 />
    <glyph glyph-name="quoteleft" unicode="&#x2018;" horiz-adv-x="192" 
d="M64 448h-64v64v64v64h64v-64h64v-64v-64h-64zM64 640v64h64v-64h-64z" />
    <glyph glyph-name="quoteright" unicode="&#x2019;" horiz-adv-x="192" 
d="M0 448v64h64v-64h-64zM64 512v64h-64v64v64h64h64v-64v-64v-64h-64z" />
    <glyph glyph-name="quotedblleft" unicode="&#x201c;" horiz-adv-x="384" 
d="M256 448h-64v64v64v64h64v-64h64v-64v-64h-64zM64 448h-64v64v64v64h64v-64h64v-64v-64h-64zM256 640v64h64v-64h-64zM64 640v64h64v-64h-64z" />
    <glyph glyph-name="quotedblright" unicode="&#x201d;" horiz-adv-x="384" 
d="M192 448v64h64v-64h-64zM0 448v64h64v-64h-64zM256 512v64h-64v64v64h64h64v-64v-64v-64h-64zM64 512v64h-64v64v64h64h64v-64v-64v-64h-64z" />
    <glyph glyph-name="uni3000" unicode="&#x3000;" horiz-adv-x="1024" 
 />
  </font>
</defs>
</svg>
